<svg width="21" height="29" viewBox="0 0 21 29" fill="none" xmlns="http://www.w3.org/2000/svg">
<rect width="21" height="29" fill="#F5F5F5"/>
<g id="Desktop - 5" clip-path="url(#clip0_23_4)">
<rect width="1440" height="1024" transform="translate(-499 -194)" fill="white"/>
<rect id="Rectangle 26" x="-499" y="-194" width="1440" height="1024" fill="#F9F9F9"/>
<g id="form">
<path id="&#208;&#148;&#208;&#190;&#208;&#177;&#209;&#128;&#208;&#190; &#208;&#191;&#208;&#190;&#208;&#182;&#208;&#176;&#208;&#187;&#208;&#190;&#208;&#178;&#208;&#176;&#209;&#130;&#209;&#140; &#208;&#178; ... (&#208;&#189;&#208;&#176;&#208;&#183;&#208;&#178;&#208;&#176;&#208;&#189;&#208;&#184;&#208;&#181; &#208;&#191;&#208;&#187;&#208;&#176;&#209;&#130;&#209;&#132;&#208;&#190;&#209;&#128;&#208;&#188;&#209;&#139;)!" d="M-223.304 -1.024H-211.944C-212.2 -2.752 -212.872 -6.88 -214.184 -12.64C-215.4 -17.984 -216.424 -21.568 -217 -23.488L-223.304 -1.024ZM-224.968 -1.024C-224.392 -2.592 -222.888 -6.784 -221.128 -12.832C-219.528 -18.24 -218.28 -22.016 -218.28 -23.744C-218.28 -24.352 -219.08 -24.992 -219.464 -25.184H-212.04C-212.04 -25.184 -213.32 -24.864 -213.32 -23.744C-213.32 -23.68 -213.288 -23.616 -213.288 -23.52C-213 -21.632 -212.424 -18.08 -211.176 -12.64C-209.864 -6.88 -208.648 -2.752 -208.104 -1.024H-205.384V6.112C-205.384 6.112 -206.696 0.16 -210.344 -0.032H-222.792C-226.408 0.16 -227.72 6.112 -227.72 6.112V-1.024H-224.968ZM-201.544 -16.896C-201.704 -16.064 -201.8 -15.104 -201.8 -14.08C-201.8 -12.928 -201.672 -11.744 -201.448 -10.624C-201.032 -8.672 -199.976 -6.496 -199.208 -5.28C-197.608 -2.784 -194.44 -0.992 -191.112 -0.992C-190.472 -0.992 -189.832 -1.056 -189.192 -1.184C-185.256 -2.048 -182.376 -5.408 -181.832 -8.992C-181.704 -9.696 -181.64 -10.688 -181.64 -11.712C-181.64 -12.736 -181.736 -13.856 -181.928 -14.816C-182.376 -16.928 -183.24 -19.072 -184.424 -20.608C-186.216 -22.912 -189.16 -24.544 -192.296 -24.544C-192.936 -24.544 -193.576 -24.48 -194.216 -24.352C-198.024 -23.52 -200.872 -20.256 -201.544 -16.896ZM-204.808 -9.952C-205 -10.816 -205.064 -11.712 -205.064 -12.544C-205.064 -19.104 -199.976 -24.672 -194.632 -25.824C-193.672 -26.048 -192.744 -26.144 -191.784 -26.144C-185.64 -26.144 -180.072 -21.888 -178.728 -15.648C-178.504 -14.688 -178.408 -13.728 -178.408 -12.8C-178.408 -6.656 -182.664 -1.12 -188.904 0.224C-190.024 0.48 -191.112 0.576 -192.2 0.576C-198.152 0.576 -203.4 -3.04 -204.808 -9.952ZM-165.661 -12.192C-165.917 -12.192 -166.205 -12.224 -166.525 -12.224C-167.933 -12.224 -169.789 -12.096 -171.293 -12C-171.293 -6.528 -171.069 -3.04 -170.941 -1.312C-169.245 -1.184 -167.229 -1.056 -165.821 -1.056C-162.973 -1.056 -160.605 -3.808 -160.605 -6.656C-160.605 -9.504 -162.813 -12.064 -165.661 -12.192ZM-174.717 -24.128C-174.813 -24.8 -175.837 -25.184 -175.837 -25.184H-165.213C-161.885 -25.248 -159.581 -25.472 -159.581 -25.472C-159.581 -25.472 -159.965 -23.872 -160.125 -22.592C-160.349 -20.992 -160.349 -18.176 -160.349 -18.176C-160.349 -18.176 -161.661 -24.096 -165.437 -24.096H-170.877C-171.005 -22.4 -171.261 -18.56 -171.293 -13.312L-164.605 -13.28C-160.925 -13.28 -157.949 -10.336 -157.949 -6.656C-157.949 -2.976 -160.925 0 -164.605 0H-175.837C-175.805 -0.032 -174.813 -0.384 -174.717 -1.12C-174.493 -2.56 -174.301 -6.592 -174.301 -12.544C-174.301 -18.24 -174.589 -22.368 -174.717 -24.128ZM-146.48 -12.384L-150.544 -12.352V-11.072C-150.544 -5.76 -150.352 -2.4 -150.128 -1.024C-150.064 -0.416 -149.04 -0.032 -149.04 -0.032H-155.056C-155.056 -0.032 -154.032 -0.576 -153.936 -1.12C-153.808 -2.784 -153.552 -6.528 -153.552 -12.608C-153.552 -18.624 -153.776 -22.528 -154 -24.416C-154.064 -24.832 -155.056 -25.184 -155.056 -25.184H-152.72L-146.512 -25.248C-142.96 -25.248 -140.08 -22.336 -140.08 -18.784C-140.08 -15.264 -142.928 -12.384 -146.48 -12.384ZM-147.504 -24.16H-148.24C-148.848 -24.16 -149.52 -24.16 -150.128 -24.128C-150.256 -22.4 -150.512 -18.56 -150.544 -13.408H-147.664C-144.912 -13.408 -142.64 -16.064 -142.64 -18.784C-142.64 -21.536 -144.784 -24.032 -147.504 -24.16ZM-134.012 -16.896C-134.172 -16.064 -134.268 -15.104 -134.268 -14.08C-134.268 -12.928 -134.14 -11.744 -133.916 -10.624C-133.5 -8.672 -132.444 -6.496 -131.676 -5.28C-130.076 -2.784 -126.908 -0.992 -123.58 -0.992C-122.94 -0.992 -122.3 -1.056 -121.66 -1.184C-117.724 -2.048 -114.844 -5.408 -114.3 -8.992C-114.172 -9.696 -114.108 -10.688 -114.108 -11.712C-114.108 -12.736 -114.204 -13.856 -114.396 -14.816C-114.844 -16.928 -115.708 -19.072 -116.892 -20.608C-118.684 -22.912 -121.628 -24.544 -124.764 -24.544C-125.404 -24.544 -126.044 -24.48 -126.684 -24.352C-130.492 -23.52 -133.34 -20.256 -134.012 -16.896ZM-137.276 -9.952C-137.468 -10.816 -137.532 -11.712 -137.532 -12.544C-137.532 -19.104 -132.444 -24.672 -127.1 -25.824C-126.14 -26.048 -125.212 -26.144 -124.252 -26.144C-118.108 -26.144 -112.54 -21.888 -111.196 -15.648C-110.972 -14.688 -110.876 -13.728 -110.876 -12.8C-110.876 -6.656 -115.132 -1.12 -121.372 0.224C-122.492 0.48 -123.58 0.576 -124.668 0.576C-130.62 0.576 -135.868 -3.04 -137.276 -9.952ZM-78.9045 -1.76C-78.7765 -0.736 -77.3685 -0.032 -77.3685 -0.032H-84.0885C-84.0885 -0.032 -82.7765 -0.416 -82.5845 -1.632C-82.4245 -3.488 -82.2325 -7.072 -82.2325 -12.608C-82.2325 -17.632 -82.5205 -22.688 -82.6805 -23.84C-83.0325 -24.096 -85.7525 -24.128 -87.9925 -24.128C-90.3605 -24.128 -93.0165 -24.128 -93.4005 -23.872C-93.6885 -22.08 -93.8485 -17.6 -93.8485 -12.608C-93.8485 -7.2 -93.6565 -3.68 -93.4965 -1.76C-93.3685 -0.736 -91.9925 -0.032 -91.9925 -0.032H-98.7125C-98.7125 -0.032 -97.3045 -0.672 -97.2085 -1.792C-97.1125 -2.848 -96.8565 -6.816 -96.8565 -11.776V-12.608C-96.8885 -17.632 -97.0485 -21.44 -97.2085 -23.456C-97.3045 -24.8 -98.7125 -25.184 -98.7125 -25.184H-77.3685C-77.4645 -25.088 -78.7765 -24.352 -78.8725 -23.456C-79.0645 -21.408 -79.2245 -17.6 -79.2245 -12.608C-79.2245 -7.2 -79.0645 -3.68 -78.9045 -1.76ZM-71.2937 -16.896C-71.4537 -16.064 -71.5497 -15.104 -71.5497 -14.08C-71.5497 -12.928 -71.4217 -11.744 -71.1977 -10.624C-70.7817 -8.672 -69.7257 -6.496 -68.9577 -5.28C-67.3577 -2.784 -64.1897 -0.992 -60.8617 -0.992C-60.2217 -0.992 -59.5817 -1.056 -58.9417 -1.184C-55.0057 -2.048 -52.1257 -5.408 -51.5817 -8.992C-51.4537 -9.696 -51.3897 -10.688 -51.3897 -11.712C-51.3897 -12.736 -51.4857 -13.856 -51.6777 -14.816C-52.1257 -16.928 -52.9897 -19.072 -54.1737 -20.608C-55.9657 -22.912 -58.9097 -24.544 -62.0457 -24.544C-62.6857 -24.544 -63.3257 -24.48 -63.9657 -24.352C-67.7737 -23.52 -70.6217 -20.256 -71.2937 -16.896ZM-74.5577 -9.952C-74.7497 -10.816 -74.8137 -11.712 -74.8137 -12.544C-74.8137 -19.104 -69.7257 -24.672 -64.3817 -25.824C-63.4217 -26.048 -62.4937 -26.144 -61.5337 -26.144C-55.3897 -26.144 -49.8217 -21.888 -48.4777 -15.648C-48.2537 -14.688 -48.1577 -13.728 -48.1577 -12.8C-48.1577 -6.656 -52.4137 -1.12 -58.6537 0.224C-59.7737 0.48 -60.8617 0.576 -61.9497 0.576C-67.9017 0.576 -73.1497 -3.04 -74.5577 -9.952ZM-44.9462 -2.4L-33.6502 -13.696L-42.8342 -22.944C-44.6582 -24.64 -46.1942 -25.12 -46.1942 -25.12L-40.8502 -25.152C-40.8502 -25.152 -41.4902 -24.832 -41.4902 -24.256C-41.4902 -24.032 -41.3942 -23.808 -41.1702 -23.52L-32.6262 -14.944C-32.6902 -18.72 -32.8182 -21.6 -32.9462 -23.328C-33.0742 -24.608 -34.5462 -25.184 -34.5462 -25.184H-27.8262C-27.8262 -25.184 -29.2342 -24.384 -29.3622 -23.296C-29.5542 -21.696 -29.5862 -18.56 -29.5862 -15.136L-21.1702 -23.584C-20.9462 -23.872 -20.8502 -24.096 -20.8502 -24.32C-20.8502 -24.896 -21.4902 -25.216 -21.4902 -25.216H-16.1462C-16.1462 -25.216 -17.6822 -24.704 -19.5062 -23.008L-28.6902 -13.76L-17.3622 -2.432C-15.6022 -0.736 -13.6822 -0.032 -13.6822 -0.032H-21.1382C-21.1382 -0.032 -19.9542 -0.48 -19.9542 -1.184C-19.9542 -1.376 -20.0502 -1.6 -20.2742 -1.824L-29.5862 -11.136C-29.5542 -6.944 -29.3942 -4 -29.2662 -2.208C-29.1702 -1.12 -27.7622 -0.032 -27.7622 -0.032H-34.4502C-34.4502 -0.032 -33.0742 -0.864 -32.9462 -2.176C-32.8182 -3.936 -32.6262 -6.784 -32.5942 -11.2L-42.0342 -1.76C-42.2902 -1.504 -42.3542 -1.28 -42.3542 -1.088C-42.3542 -0.384 -41.2022 0 -41.2022 0H-48.6262C-48.6262 0 -46.6742 -0.672 -44.9462 -2.4ZM-4.31025 -13.152H1.32175C0.137751 -18.272 -0.854249 -21.728 -1.39825 -23.552L-4.31025 -13.152ZM-11.1262 -0.032C-11.1262 -0.032 -9.46225 -0.832 -9.01425 -2.016C-6.74225 -8.128 -4.63025 -15.616 -2.67825 -24.096C-2.67825 -24.096 -2.67825 -24.128 -2.67825 -24.16C-2.67825 -24.64 -3.83025 -25.184 -3.83025 -25.184H3.59375C3.59375 -25.184 2.31375 -24.832 2.31375 -23.712C2.31375 -23.648 2.34575 -23.584 2.34575 -23.488C2.63375 -21.6 3.20975 -18.048 4.45775 -12.608C5.57775 -7.616 6.66575 -3.84 7.27375 -1.792C7.65775 -0.512 8.71375 -0.032 8.71375 -0.032H1.96175C1.96175 -0.032 3.52975 -0.768 3.52975 -1.792C3.52975 -3.84 2.60175 -7.456 1.57775 -12.096H-4.63025L-7.47825 -1.888C-7.51025 -1.792 -7.51025 -1.664 -7.51025 -1.568C-7.51025 -0.512 -5.94225 -0.032 -5.94225 -0.032H-11.1262ZM29.68 -1.824C30.064 -0.544 31.152 0 31.152 0H24.4C24.4 0 25.968 -0.8 25.968 -1.824C25.968 -3.968 25.008 -7.744 23.888 -12.64C22.672 -17.952 21.648 -21.536 21.072 -23.456L14.992 -1.856C14.96 -1.76 14.96 -1.632 14.96 -1.536C14.96 -0.48 16.496 0 16.496 0H11.28C11.28 0 13.104 -0.992 13.456 -2.016C14.192 -4.064 15.504 -7.776 16.944 -12.736C18.608 -18.496 19.824 -22.4 19.824 -23.872C19.824 -24.672 18.576 -25.184 18.576 -25.184H26.032C26.032 -25.184 24.72 -24.864 24.72 -23.744C24.72 -23.68 24.752 -23.616 24.752 -23.52C25.04 -21.632 25.648 -18.08 26.896 -12.64C28.016 -7.648 29.072 -3.872 29.68 -1.824ZM34.9875 -16.896C34.8275 -16.064 34.7315 -15.104 34.7315 -14.08C34.7315 -12.928 34.8595 -11.744 35.0835 -10.624C35.4995 -8.672 36.5555 -6.496 37.3235 -5.28C38.9235 -2.784 42.0915 -0.992 45.4195 -0.992C46.0595 -0.992 46.6995 -1.056 47.3395 -1.184C51.2755 -2.048 54.1555 -5.408 54.6995 -8.992C54.8275 -9.696 54.8915 -10.688 54.8915 -11.712C54.8915 -12.736 54.7955 -13.856 54.6035 -14.816C54.1555 -16.928 53.2915 -19.072 52.1075 -20.608C50.3155 -22.912 47.3715 -24.544 44.2355 -24.544C43.5955 -24.544 42.9555 -24.48 42.3155 -24.352C38.5075 -23.52 35.6595 -20.256 34.9875 -16.896ZM31.7235 -9.952C31.5315 -10.816 31.4675 -11.712 31.4675 -12.544C31.4675 -19.104 36.5555 -24.672 41.8995 -25.824C42.8595 -26.048 43.7875 -26.144 44.7475 -26.144C50.8915 -26.144 56.4595 -21.888 57.8035 -15.648C58.0275 -14.688 58.1235 -13.728 58.1235 -12.8C58.1235 -6.656 53.8675 -1.12 47.6275 0.224C46.5075 0.48 45.4195 0.576 44.3315 0.576C38.3795 0.576 33.1315 -3.04 31.7235 -9.952ZM61.8778 -24.096C61.7818 -24.608 60.6938 -25.184 60.6938 -25.184H63.0298L69.2698 -25.248C72.8218 -25.248 75.7018 -22.336 75.7018 -18.784C75.7018 -16.448 74.4538 -14.4 72.5658 -13.28C75.9578 -12.96 78.6138 -10.112 78.6138 -6.656C78.6138 -2.976 75.6378 -0.032 71.9578 -0.032H60.7258C60.7258 -0.032 61.7818 -0.608 61.8458 -1.152C62.0058 -2.848 62.2298 -6.528 62.2298 -12.576C62.2298 -18.592 62.1658 -22.464 61.8778 -24.096ZM75.9578 -6.656C75.9578 -9.504 73.7178 -12.096 70.8698 -12.224C70.0058 -12.256 68.8218 -12.288 67.6378 -12.288C66.8058 -12.288 65.9738 -12.256 65.2378 -12.256C65.2378 -6.624 65.4618 -3.072 65.6218 -1.344C67.3177 -1.216 69.3338 -1.056 70.7418 -1.056C73.5898 -1.056 75.9578 -3.808 75.9578 -6.656ZM68.2778 -24.16H67.6058C66.9658 -24.16 66.2938 -24.128 65.6538 -24.096C65.5258 -22.368 65.2698 -18.56 65.2378 -13.376H68.1178C70.8698 -13.376 73.1418 -16.032 73.1418 -18.784C73.1418 -21.536 70.9978 -24.032 68.2778 -24.16ZM85.7523 -13.152H91.3843C90.2003 -18.272 89.2083 -21.728 88.6643 -23.552L85.7523 -13.152ZM78.9363 -0.032C78.9363 -0.032 80.6003 -0.832 81.0483 -2.016C83.3203 -8.128 85.4323 -15.616 87.3843 -24.096C87.3843 -24.096 87.3843 -24.128 87.3843 -24.16C87.3843 -24.64 86.2323 -25.184 86.2323 -25.184H93.6562C93.6562 -25.184 92.3763 -24.832 92.3763 -23.712C92.3763 -23.648 92.4083 -23.584 92.4083 -23.488C92.6963 -21.6 93.2723 -18.048 94.5203 -12.608C95.6403 -7.616 96.7283 -3.84 97.3363 -1.792C97.7203 -0.512 98.7763 -0.032 98.7763 -0.032H92.0243C92.0243 -0.032 93.5923 -0.768 93.5923 -1.792C93.5923 -3.84 92.6643 -7.456 91.6403 -12.096H85.4323L82.5843 -1.888C82.5523 -1.792 82.5523 -1.664 82.5523 -1.568C82.5523 -0.512 84.1203 -0.032 84.1203 -0.032H78.9363ZM115.637 -25.28C118.965 -25.28 121.301 -25.536 121.301 -25.536C121.301 -25.536 120.885 -23.968 120.725 -22.688C120.501 -21.088 120.501 -18.24 120.501 -18.24C120.501 -18.24 119.189 -24.192 115.413 -24.192H112.053C111.925 -22.592 111.669 -18.976 111.669 -14.08V-12.608C111.701 -7.392 111.829 -2.848 111.989 -1.792C112.149 -0.736 113.525 -0.032 113.525 -0.032H106.773C106.773 -0.032 108.149 -0.448 108.309 -1.792C108.501 -3.584 108.629 -6.624 108.629 -11.04V-12.608C108.565 -18.336 108.341 -22.432 108.213 -24.192H104.725C101.109 -23.968 99.8925 -18.24 99.8925 -18.24C99.8925 -18.24 99.8925 -21.088 99.6685 -22.688C99.5085 -23.968 99.0925 -25.536 99.0925 -25.536C99.0925 -25.536 101.429 -25.28 104.757 -25.28H115.637ZM134.018 -12.256H133.282C131.874 -12.256 129.922 -12.128 128.386 -12.032C128.386 -6.528 128.642 -3.04 128.77 -1.312C130.466 -1.184 132.482 -1.056 133.89 -1.056C136.738 -1.056 139.106 -3.808 139.106 -6.656C139.106 -9.504 136.866 -12.128 134.018 -12.256ZM124.994 -1.12C125.154 -2.816 125.378 -6.56 125.378 -12.608C125.378 -18.272 125.122 -22.336 124.962 -24.128C124.866 -24.704 123.874 -25.184 123.874 -25.184H129.89C129.89 -25.184 128.898 -24.768 128.802 -24.16C128.674 -22.432 128.418 -18.56 128.386 -13.344L135.106 -13.312C138.786 -13.312 141.762 -10.336 141.762 -6.656C141.762 -2.976 138.786 0 135.106 0H126.402H123.874C123.874 0 124.93 -0.576 124.994 -1.12ZM155.097 -24.096C155.001 -24.608 153.913 -25.184 153.913 -25.184H156.249L162.489 -25.248C166.041 -25.248 168.921 -22.336 168.921 -18.784C168.921 -16.448 167.673 -14.4 165.785 -13.28C169.177 -12.96 171.833 -10.112 171.833 -6.656C171.833 -2.976 168.857 -0.032 165.177 -0.032H153.945C153.945 -0.032 155.001 -0.608 155.065 -1.152C155.225 -2.848 155.449 -6.528 155.449 -12.576C155.449 -18.592 155.385 -22.464 155.097 -24.096ZM169.177 -6.656C169.177 -9.504 166.937 -12.096 164.089 -12.224C163.225 -12.256 162.041 -12.288 160.857 -12.288C160.025 -12.288 159.193 -12.256 158.457 -12.256C158.457 -6.624 158.681 -3.072 158.841 -1.344C160.536 -1.216 162.553 -1.056 163.961 -1.056C166.809 -1.056 169.177 -3.808 169.177 -6.656ZM161.497 -24.16H160.825C160.185 -24.16 159.513 -24.128 158.873 -24.096C158.745 -22.368 158.489 -18.56 158.457 -13.376H161.337C164.089 -13.376 166.361 -16.032 166.361 -18.784C166.361 -21.536 164.217 -24.032 161.497 -24.16ZM182.719 -1.312C182.719 -1.472 183.871 -2.016 184.223 -2.4C184.383 -2.4 185.183 -1.344 185.855 -0.864C185.855 -0.768 184.799 -0.352 184.159 0.32C184.159 0.32 182.719 -0.768 182.719 -1.312ZM185.844 -1.312C185.844 -1.472 186.996 -2.016 187.348 -2.4C187.508 -2.4 188.308 -1.344 188.98 -0.864C188.98 -0.768 187.924 -0.352 187.284 0.32C187.284 0.32 185.844 -0.768 185.844 -1.312ZM188.969 -1.312C188.969 -1.472 190.121 -2.016 190.473 -2.4C190.633 -2.4 191.433 -1.344 192.105 -0.864C192.105 -0.768 191.049 -0.352 190.409 0.32C190.409 0.32 188.969 -0.768 188.969 -1.312ZM215.512 0.288C208.792 -0.064 203.416 -5.6 203.288 -12.416V-12.672C203.288 -19.552 208.696 -25.248 215.576 -25.6C211.416 -24.192 208.952 -21.568 207.704 -18.4C207 -16.608 206.616 -14.688 206.616 -12.64V-12.384C206.648 -10.432 207.064 -8.576 207.736 -6.88C209.016 -3.712 211.992 -0.032 215.512 0.288ZM220.324 -1.824C220.484 -3.744 220.676 -7.264 220.676 -12.608C220.676 -17.632 220.484 -21.44 220.324 -23.456C220.228 -24.8 218.82 -25.184 218.82 -25.184H225.54C225.252 -25.088 224.164 -24.544 224.036 -23.456C223.78 -21.248 223.684 -17.856 223.684 -13.152C223.876 -13.152 227.044 -13.056 229.476 -13.056C231.876 -13.056 235.204 -13.152 235.3 -13.152C235.3 -17.92 235.044 -21.504 234.916 -23.456C234.819 -24.8 233.444 -25.184 233.444 -25.184L240.164 -25.216C239.972 -25.056 238.756 -24.192 238.66 -23.456C238.436 -21.76 238.276 -18.848 238.276 -15.04C238.276 -14.272 238.308 -13.44 238.308 -12.608C238.404 -7.296 238.372 -4.16 238.692 -1.792C238.82 -0.736 240.164 0 240.164 0H233.444C233.444 0 234.852 -0.48 234.948 -1.824C235.076 -3.68 235.3 -7.008 235.3 -12.064C235.267 -12.064 231.684 -12.16 229.444 -12.16C227.108 -12.16 223.876 -12.064 223.684 -12.064C223.684 -7.072 224.068 -1.856 224.068 -1.856C224.164 -0.8 225.572 0 225.572 0H218.788C218.788 0 220.228 -0.48 220.324 -1.824ZM249.534 -13.152H255.166C253.982 -18.272 252.99 -21.728 252.446 -23.552L249.534 -13.152ZM242.718 -0.032C242.718 -0.032 244.382 -0.832 244.83 -2.016C247.102 -8.128 249.214 -15.616 251.166 -24.096C251.166 -24.096 251.166 -24.128 251.166 -24.16C251.166 -24.64 250.014 -25.184 250.014 -25.184H257.438C257.438 -25.184 256.158 -24.832 256.158 -23.712C256.158 -23.648 256.19 -23.584 256.19 -23.488C256.478 -21.6 257.054 -18.048 258.302 -12.608C259.422 -7.616 260.51 -3.84 261.118 -1.792C261.502 -0.512 262.558 -0.032 262.558 -0.032H255.806C255.806 -0.032 257.374 -0.768 257.374 -1.792C257.374 -3.84 256.446 -7.456 255.422 -12.096H249.214L246.366 -1.888C246.334 -1.792 246.334 -1.664 246.334 -1.568C246.334 -0.512 247.902 -0.032 247.902 -0.032H242.718ZM274.148 -15.392C277.86 -14.56 280.772 -11.456 280.772 -7.808C280.772 -3.488 277.028 -0.032 272.42 -0.032H272.292C271.844 -0.032 265.444 -0.096 265.444 -3.296C265.54 -3.296 267.94 -1.152 271.396 -1.152H271.46C275.172 -1.152 277.252 -3.968 277.252 -7.904C277.252 -11.872 275.012 -14.816 271.268 -14.976H271.044C270.308 -14.976 270.02 -14.848 270.02 -14.848C270.02 -14.848 269.892 -15.616 269.892 -15.68C269.892 -15.68 270.308 -15.52 271.684 -15.52C273.764 -15.52 274.98 -18.272 274.98 -20.032C274.98 -22.016 273.7 -24.288 271.556 -24.288C267.332 -24.192 266.692 -21.12 266.244 -19.648V-19.968C266.244 -20.704 266.212 -22.496 266.052 -23.744C265.892 -25.024 265.764 -25.44 265.764 -25.44C265.764 -25.44 266.436 -24.704 267.524 -24.704C267.684 -24.704 267.844 -24.736 268.036 -24.768C268.996 -24.96 270.116 -25.088 270.852 -25.152H270.884H271.268H271.428H271.46H272.388C275.14 -25.152 277.412 -22.816 277.412 -20.064C277.412 -17.92 276.036 -16.096 274.148 -15.392ZM284.847 -24.096C284.751 -24.608 283.663 -25.184 283.663 -25.184H285.999L292.239 -25.248C295.791 -25.248 298.671 -22.336 298.671 -18.784C298.671 -16.448 297.423 -14.4 295.535 -13.28C298.927 -12.96 301.583 -10.112 301.583 -6.656C301.583 -2.976 298.607 -0.032 294.927 -0.032H283.695C283.695 -0.032 284.751 -0.608 284.815 -1.152C284.975 -2.848 285.199 -6.528 285.199 -12.576C285.199 -18.592 285.135 -22.464 284.847 -24.096ZM298.927 -6.656C298.927 -9.504 296.687 -12.096 293.839 -12.224C292.975 -12.256 291.791 -12.288 290.607 -12.288C289.775 -12.288 288.943 -12.256 288.207 -12.256C288.207 -6.624 288.431 -3.072 288.591 -1.344C290.286 -1.216 292.303 -1.056 293.711 -1.056C296.559 -1.056 298.927 -3.808 298.927 -6.656ZM291.247 -24.16H290.575C289.935 -24.16 289.263 -24.128 288.623 -24.096C288.495 -22.368 288.239 -18.56 288.207 -13.376H291.087C293.839 -13.376 296.111 -16.032 296.111 -18.784C296.111 -21.536 293.967 -24.032 291.247 -24.16ZM308.721 -13.152H314.353C313.169 -18.272 312.177 -21.728 311.633 -23.552L308.721 -13.152ZM301.905 -0.032C301.905 -0.032 303.569 -0.832 304.017 -2.016C306.289 -8.128 308.401 -15.616 310.353 -24.096C310.353 -24.096 310.353 -24.128 310.353 -24.16C310.353 -24.64 309.201 -25.184 309.201 -25.184H316.625C316.625 -25.184 315.345 -24.832 315.345 -23.712C315.345 -23.648 315.377 -23.584 315.377 -23.488C315.665 -21.6 316.241 -18.048 317.489 -12.608C318.609 -7.616 319.697 -3.84 320.305 -1.792C320.689 -0.512 321.745 -0.032 321.745 -0.032H314.993C314.993 -0.032 316.561 -0.768 316.561 -1.792C316.561 -3.84 315.633 -7.456 314.609 -12.096H308.401L305.553 -1.888C305.521 -1.792 305.521 -1.664 305.521 -1.568C305.521 -0.512 307.089 -0.032 307.089 -0.032H301.905ZM326.167 -1.824C326.327 -3.744 326.519 -7.264 326.519 -12.608C326.519 -17.632 326.327 -21.44 326.167 -23.456C326.071 -24.8 324.663 -25.184 324.663 -25.184H331.383C331.095 -25.088 330.007 -24.544 329.879 -23.456C329.623 -21.248 329.527 -17.856 329.527 -13.152C329.719 -13.152 332.887 -13.056 335.319 -13.056C337.719 -13.056 341.047 -13.152 341.143 -13.152C341.143 -17.92 340.887 -21.504 340.759 -23.456C340.663 -24.8 339.287 -25.184 339.287 -25.184L346.007 -25.216C345.815 -25.056 344.599 -24.192 344.503 -23.456C344.279 -21.76 344.119 -18.848 344.119 -15.04C344.119 -14.272 344.151 -13.44 344.151 -12.608C344.247 -7.296 344.215 -4.16 344.535 -1.792C344.663 -0.736 346.007 0 346.007 0H339.287C339.287 0 340.695 -0.48 340.791 -1.824C340.919 -3.68 341.143 -7.008 341.143 -12.064C341.111 -12.064 337.527 -12.16 335.287 -12.16C332.951 -12.16 329.719 -12.064 329.527 -12.064C329.527 -7.072 329.911 -1.856 329.911 -1.856C330.007 -0.8 331.415 0 331.415 0H324.631C324.631 0 326.071 -0.48 326.167 -1.824ZM350.417 -1.888C350.577 -3.808 350.737 -7.328 350.737 -12.672C350.737 -17.696 350.545 -21.472 350.385 -23.488C350.289 -24.832 348.913 -25.184 348.913 -25.184H355.569C355.569 -25.184 354.193 -24.544 354.129 -23.488H354.097C353.937 -21.44 353.745 -17.632 353.745 -12.672C353.745 -8.128 353.905 -4.896 354.033 -2.848C355.345 -5.056 357.233 -8.512 359.377 -12.928C363.057 -20.544 364.849 -24.768 364.849 -25.152C364.849 -25.152 364.849 -25.152 364.849 -25.184H370.193C370.193 -25.184 368.913 -24.48 368.721 -23.424C368.529 -22.4 368.369 -18.784 368.369 -14.624V-12.672C368.433 -7.36 368.689 -1.888 368.689 -1.888C368.785 -0.832 370.193 -0.032 370.193 -0.032H363.505C363.505 -0.032 364.913 -0.544 365.009 -1.888C365.169 -3.808 365.361 -7.328 365.361 -12.672C365.361 -16.928 365.201 -20.288 365.073 -22.464L354.257 -0.032V0L348.881 -0.032C348.881 -0.032 350.321 -0.544 350.417 -1.888ZM374.221 -1.184C374.349 -2.752 374.573 -6.368 374.573 -12.672C374.573 -18.272 374.317 -22.304 374.157 -24.128C374.093 -24.704 373.069 -25.184 373.069 -25.184H385.165C388.461 -25.184 390.829 -25.6 390.829 -25.6C390.829 -25.6 390.445 -24.032 390.253 -22.752C390.061 -21.12 390.029 -18.304 390.029 -18.304C390.029 -18.304 388.717 -24.128 384.941 -24.128H377.997C377.837 -22.336 377.613 -18.432 377.581 -13.152L382.413 -13.184C385.133 -13.248 385.741 -14.912 385.741 -14.912V-10.304C385.741 -10.304 385.037 -11.968 382.445 -12.064H377.581C377.613 -6.144 377.869 -2.56 377.997 -1.024H384.973C388.717 -1.056 390.029 -6.944 390.029 -6.944C390.029 -6.944 390.061 -4.096 390.253 -2.496C390.445 -1.216 390.829 0.384 390.829 0.384C390.829 0.384 388.461 -0.032 385.165 -0.032H373.069C373.069 -0.032 374.093 -0.608 374.221 -1.184ZM423.096 -1.76C423.224 -0.736 424.632 -0.032 424.632 -0.032H417.912C417.912 -0.032 419.224 -0.416 419.416 -1.632C419.576 -3.488 419.767 -7.072 419.767 -12.608C419.767 -17.632 419.48 -22.688 419.319 -23.84C418.968 -24.096 416.248 -24.128 414.008 -24.128C411.64 -24.128 408.984 -24.128 408.6 -23.872C408.312 -22.08 408.152 -17.6 408.152 -12.608C408.152 -7.2 408.344 -3.68 408.504 -1.76C408.632 -0.736 410.008 -0.032 410.008 -0.032H403.288C403.288 -0.032 404.696 -0.672 404.792 -1.792C404.888 -2.848 405.144 -6.816 405.144 -11.776V-12.608C405.112 -17.632 404.952 -21.44 404.792 -23.456C404.696 -24.8 403.288 -25.184 403.288 -25.184H424.632C424.536 -25.088 423.224 -24.352 423.128 -23.456C422.936 -21.408 422.776 -17.6 422.776 -12.608C422.776 -7.2 422.936 -3.68 423.096 -1.76ZM445.586 -1.824C445.97 -0.544 447.058 0 447.058 0H440.306C440.306 0 441.874 -0.8 441.874 -1.824C441.874 -3.968 440.914 -7.744 439.794 -12.64C438.578 -17.952 437.554 -21.536 436.978 -23.456L430.898 -1.856C430.866 -1.76 430.866 -1.632 430.866 -1.536C430.866 -0.48 432.402 0 432.402 0H427.186C427.186 0 429.01 -0.992 429.362 -2.016C430.098 -4.064 431.41 -7.776 432.85 -12.736C434.514 -18.496 435.73 -22.4 435.73 -23.872C435.73 -24.672 434.482 -25.184 434.482 -25.184H441.938C441.938 -25.184 440.626 -24.864 440.626 -23.744C440.626 -23.68 440.658 -23.616 440.658 -23.52C440.946 -21.632 441.554 -18.08 442.802 -12.64C443.922 -7.648 444.978 -3.872 445.586 -1.824ZM456.44 -13.152H462.072C460.888 -18.272 459.896 -21.728 459.352 -23.552L456.44 -13.152ZM449.624 -0.032C449.624 -0.032 451.288 -0.832 451.736 -2.016C454.008 -8.128 456.12 -15.616 458.072 -24.096C458.072 -24.096 458.072 -24.128 458.072 -24.16C458.072 -24.64 456.92 -25.184 456.92 -25.184H464.344C464.344 -25.184 463.064 -24.832 463.064 -23.712C463.064 -23.648 463.096 -23.584 463.096 -23.488C463.384 -21.6 463.96 -18.048 465.208 -12.608C466.328 -7.616 467.416 -3.84 468.024 -1.792C468.408 -0.512 469.464 -0.032 469.464 -0.032H462.712C462.712 -0.032 464.28 -0.768 464.28 -1.792C464.28 -3.84 463.352 -7.456 462.328 -12.096H456.12L453.272 -1.888C453.24 -1.792 453.24 -1.664 453.24 -1.568C453.24 -0.512 454.808 -0.032 454.808 -0.032H449.624ZM486.324 -25.28C489.652 -25.28 491.988 -25.536 491.988 -25.536C491.988 -25.536 491.572 -23.968 491.412 -22.688C491.188 -21.088 491.188 -18.24 491.188 -18.24C491.188 -18.24 489.876 -24.192 486.1 -24.192H482.74C482.612 -22.592 482.356 -18.976 482.356 -14.08V-12.608C482.388 -7.392 482.516 -2.848 482.676 -1.792C482.836 -0.736 484.212 -0.032 484.212 -0.032H477.46C477.46 -0.032 478.836 -0.448 478.996 -1.792C479.188 -3.584 479.316 -6.624 479.316 -11.04V-12.608C479.252 -18.336 479.028 -22.432 478.9 -24.192H475.412C471.796 -23.968 470.58 -18.24 470.58 -18.24C470.58 -18.24 470.58 -21.088 470.356 -22.688C470.196 -23.968 469.78 -25.536 469.78 -25.536C469.78 -25.536 472.116 -25.28 475.444 -25.28H486.324ZM494.382 -12.64C494.382 -8.448 497.742 -4.992 501.934 -4.928C502.03 -6.88 502.062 -9.408 502.062 -12.608C502.062 -15.616 501.998 -18.208 501.902 -20.224C497.838 -20.128 494.382 -16.864 494.382 -12.64ZM512.782 -12.64C512.782 -16.864 509.326 -20.128 505.262 -20.224C505.166 -18.208 505.07 -15.616 505.07 -12.608C505.07 -9.408 505.134 -6.88 505.23 -4.928C509.422 -4.96 512.782 -8.448 512.782 -12.64ZM516.11 -12.672C516.11 -7.936 511.086 -4.032 505.294 -3.968C505.326 -3.072 505.39 -2.336 505.422 -1.76C505.55 -0.736 506.926 0 506.926 0H500.206C500.206 0 501.646 -0.448 501.742 -1.792C501.742 -1.792 501.838 -3.104 501.87 -3.968C496.078 -4.032 491.054 -7.936 491.054 -12.672C491.054 -17.408 496.014 -21.28 501.838 -21.312C501.806 -22.176 501.742 -22.88 501.71 -23.456C501.614 -24.8 500.206 -25.184 500.206 -25.184H506.926C506.894 -25.184 505.614 -24.8 505.454 -23.456C505.39 -22.88 505.326 -22.144 505.294 -21.312C511.118 -21.28 516.11 -17.408 516.11 -12.672ZM522.175 -16.896C522.015 -16.064 521.919 -15.104 521.919 -14.08C521.919 -12.928 522.047 -11.744 522.271 -10.624C522.687 -8.672 523.743 -6.496 524.511 -5.28C526.111 -2.784 529.279 -0.992 532.607 -0.992C533.247 -0.992 533.887 -1.056 534.527 -1.184C538.463 -2.048 541.343 -5.408 541.887 -8.992C542.015 -9.696 542.079 -10.688 542.079 -11.712C542.079 -12.736 541.983 -13.856 541.791 -14.816C541.343 -16.928 540.479 -19.072 539.295 -20.608C537.503 -22.912 534.559 -24.544 531.423 -24.544C530.783 -24.544 530.143 -24.48 529.503 -24.352C525.695 -23.52 522.847 -20.256 522.175 -16.896ZM518.911 -9.952C518.719 -10.816 518.655 -11.712 518.655 -12.544C518.655 -19.104 523.743 -24.672 529.087 -25.824C530.047 -26.048 530.975 -26.144 531.935 -26.144C538.079 -26.144 543.647 -21.888 544.991 -15.648C545.215 -14.688 545.311 -13.728 545.311 -12.8C545.311 -6.656 541.055 -1.12 534.815 0.224C533.695 0.48 532.607 0.576 531.519 0.576C525.567 0.576 520.319 -3.04 518.911 -9.952ZM556.457 -12.384L552.393 -12.352V-11.072C552.393 -5.76 552.585 -2.4 552.809 -1.024C552.873 -0.416 553.897 -0.032 553.897 -0.032H547.881C547.881 -0.032 548.905 -0.576 549.001 -1.12C549.129 -2.784 549.385 -6.528 549.385 -12.608C549.385 -18.624 549.161 -22.528 548.937 -24.416C548.873 -24.832 547.881 -25.184 547.881 -25.184H550.217L556.425 -25.248C559.977 -25.248 562.857 -22.336 562.857 -18.784C562.857 -15.264 560.009 -12.384 556.457 -12.384ZM555.433 -24.16H554.697C554.089 -24.16 553.417 -24.16 552.809 -24.128C552.681 -22.4 552.425 -18.56 552.393 -13.408H555.273C558.025 -13.408 560.297 -16.064 560.297 -18.784C560.297 -21.536 558.153 -24.032 555.433 -24.16ZM577.802 -12.64C578.058 -11.488 578.314 -10.272 578.538 -9.312C578.858 -10.304 579.178 -11.392 579.498 -12.512C581.194 -18.304 582.442 -22.144 582.442 -23.808C582.442 -24.48 581.61 -25.088 581.354 -25.184H588.81C588.81 -25.184 587.498 -24.832 587.498 -23.712C587.498 -23.648 587.53 -23.584 587.53 -23.488C587.818 -21.6 588.394 -18.048 589.642 -12.608C590.762 -7.616 591.85 -3.84 592.458 -1.792C592.842 -0.512 593.93 -0.032 593.93 -0.032H587.21C587.21 -0.032 588.714 -0.736 588.714 -1.76C588.714 -3.904 587.754 -7.712 586.634 -12.608C585.386 -18.048 584.362 -21.696 583.786 -23.584L577.162 -0.096H577.13C577.13 -0.096 576.554 -4.896 574.794 -12.64C573.578 -18.048 572.554 -21.664 571.978 -23.552L565.898 -1.984C565.866 -1.856 565.866 -1.76 565.866 -1.664C565.866 -0.576 567.402 -0.032 567.402 -0.032H562.218C562.218 -0.032 563.914 -0.992 564.33 -2.112C565.034 -4.096 566.378 -7.904 567.882 -13.056C569.418 -18.336 570.345 -21.92 570.698 -23.68C570.698 -23.744 570.73 -23.776 570.73 -23.84C570.73 -24.608 569.514 -25.184 569.514 -25.184H576.938C576.938 -25.184 575.658 -24.864 575.658 -23.744C575.658 -23.68 575.69 -23.616 575.69 -23.52C575.978 -21.632 576.554 -18.08 577.802 -12.64ZM597.619 -1.184C597.779 -2.88 598.035 -6.56 598.035 -12.608C598.035 -18.272 597.875 -22.336 597.619 -24.128C597.523 -24.704 596.531 -25.184 596.531 -25.184H602.547C602.547 -25.184 601.523 -24.768 601.459 -24.16C601.331 -22.432 601.075 -18.592 601.043 -13.376L607.763 -13.344C611.443 -13.344 614.419 -10.368 614.419 -6.688C614.419 -3.008 611.443 -0.032 607.763 -0.032L599.059 0H596.499C596.499 0 597.587 -0.64 597.619 -1.184ZM606.675 -12.256C606.419 -12.256 606.131 -12.288 605.811 -12.288C604.403 -12.288 602.547 -12.16 601.043 -12.064C601.043 -6.56 601.267 -3.072 601.395 -1.344C603.091 -1.216 605.139 -1.088 606.547 -1.088C609.395 -1.088 611.763 -3.84 611.763 -6.688C611.763 -9.536 609.523 -12.128 606.675 -12.256ZM620.883 -1.984C620.979 -0.672 622.419 -0.064 622.419 -0.064H615.667C615.667 -0.064 617.139 -1.088 617.235 -2.176C617.395 -4.256 617.555 -10.368 617.555 -15.648C617.555 -18.912 617.491 -21.856 617.331 -23.296C617.203 -24.384 615.763 -25.184 615.763 -25.184H622.483C622.483 -25.184 621.043 -24.672 620.915 -23.424C620.723 -21.376 620.563 -17.664 620.563 -12.672C620.563 -7.456 620.723 -3.936 620.883 -1.984ZM625.382 0.288C628.934 -0.032 631.942 -3.744 633.222 -6.944C633.894 -8.64 634.278 -10.464 634.31 -12.384V-12.608C634.31 -14.688 633.894 -16.608 633.19 -18.4C631.942 -21.568 629.51 -24.192 625.35 -25.6C632.23 -25.248 637.638 -19.552 637.638 -12.672V-12.416C637.51 -5.6 632.102 -0.064 625.382 0.288ZM641.17 -1.312V-1.344C641.17 -1.472 642.354 -2.048 642.674 -2.4C642.834 -2.4 643.634 -1.344 644.306 -0.864C644.306 -0.768 643.25 -0.352 642.61 0.32C642.61 0.32 641.586 -0.96 641.17 -1.312ZM643.09 -4.32C643.09 -4.128 642.418 -3.712 642.162 -3.712C642.098 -3.712 642.066 -3.712 642.066 -3.776C642.034 -14.176 641.33 -23.616 641.33 -24.224C641.33 -24.288 641.33 -24.352 641.362 -24.384C641.778 -24.992 643.282 -25.504 643.73 -25.568C643.73 -25.568 644.018 -25.6 644.018 -25.568C644.018 -23.712 643.09 -9.728 643.09 -4.32Z" fill="#303030"/>
</g>
<rect id="Rectangle 27" x="-499" y="-194" width="1440" height="1024" fill="#40464E" fill-opacity="0.5"/>
<g id="Group 104">
<rect id="Rectangle 31" x="-116" y="-97" width="675" height="831" fill="white"/>
<g id="Group 102">
<g id="Group 61">
<g id="Group 59">
<path id="Vector 5" d="M15.3644 25.5821C14.0528 24.9222 5.93289 17.5915 1.31081 13.5479L0.186523 14.582L11.8042 24.9222C12.5537 25.5779 13.1159 26.2378 13.1159 27.0575C13.1159 27.7637 12.6162 28.205 12.1789 28.3689H20.2364C19.4868 28.205 16.7258 26.267 15.3644 25.5821Z" fill="#8B97A7"/>
<path id="Vector 6" d="M15.1779 3.41792C13.8662 4.07784 5.78359 11.4057 1.16151 15.4493L0 14.418L11.6177 4.07784C12.3672 3.42212 12.9293 2.76219 12.9293 1.94254C12.9293 1.23631 12.4296 0.795034 11.9924 0.631104H20.0498C19.3003 0.795034 16.5392 2.73302 15.1779 3.41792Z" fill="#8B97A7"/>
</g>
</g>
</g>
</g>
</g>
<defs>
<clipPath id="clip0_23_4">
<rect width="1440" height="1024" fill="white" transform="translate(-499 -194)"/>
</clipPath>
</defs>
</svg>
