<svg xmlns="http://www.w3.org/2000/svg" width="21" height="29" viewBox="0 0 21 29" fill="none">
  <path d="M5.63556 25.5821C6.94723 24.9222 15.0671 17.5915 19.6892 13.5479L20.8135 14.582L9.19581 24.9222C8.44629 25.5779 7.88414 26.2378 7.88414 27.0575C7.88414 27.7637 8.38383 28.205 8.82105 28.3689H0.763639C1.51317 28.205 4.27425 26.267 5.63556 25.5821Z" fill="#8B97A7"/>
  <path d="M5.82209 3.41792C7.13376 4.07784 15.2164 11.4057 19.8385 15.4493L21 14.418L9.38234 4.07784C8.63281 3.42212 8.07067 2.76219 8.07067 1.94254C8.07067 1.23631 8.57035 0.795034 9.00757 0.631104H0.950163C1.69969 0.795034 4.46077 2.73302 5.82209 3.41792Z" fill="#8B97A7"/>
</svg>